<svg width="182" height="26" viewBox="0 0 182 26" fill="none" xmlns="http://www.w3.org/2000/svg">
<path d="M3.98569 19.049V11.0312H0V23.0347H12.0034V19.049H3.98569Z" fill="#0094FF"/>
<path d="M19.9748 3.0127H0V9.03758H3.98569V7.04473H15.9891V19.0482H13.9963V23.0338H19.9748V3.0127Z" fill="#003778"/>
<path d="M24.0107 2.96582H30.1747V17.889H39.073V23.0333H24.0107V2.96582Z" fill="#003778"/>
<path d="M43.0117 2.96582H58.5374V8.11014H49.222V10.6128H57.2397V15.3863H49.222V23.0333H43.0117V2.96582Z" fill="#003778"/>
<path d="M67.665 12.3744L61.0839 3.0127H68.3138L71.3262 8.43509L74.2923 3.0127H81.1051L74.7094 12.4208L81.8466 22.9875H74.4314L71.0482 17.0553L67.5259 23.0338H60.4814L67.665 12.3744Z" fill="#0094FF"/>
<path fill-rule="evenodd" clip-rule="evenodd" d="M90.0547 23.0333V2.96582H90.5564V23.0333H90.0547Z" fill="#CCCCCC"/>
<path d="M100.484 21V3.72H106.796C107.916 3.72 108.836 3.848 109.556 4.104C110.292 4.36 110.868 4.712 111.284 5.16C111.716 5.608 112.012 6.128 112.172 6.72C112.348 7.296 112.436 7.904 112.436 8.544C112.436 9.504 112.236 10.296 111.836 10.92C111.452 11.544 110.948 12.04 110.324 12.408C109.7 12.76 108.988 13.008 108.188 13.152C107.404 13.296 106.612 13.368 105.812 13.368H102.116V21H100.484ZM105.86 11.976C106.628 11.976 107.316 11.928 107.924 11.832C108.532 11.736 109.044 11.56 109.46 11.304C109.892 11.032 110.22 10.672 110.444 10.224C110.684 9.76 110.804 9.16 110.804 8.424C110.804 7.336 110.444 6.512 109.724 5.952C109.02 5.392 107.892 5.112 106.34 5.112H102.116V11.976H105.86ZM116.044 21H114.604V8.568H116.044V10.896H116.092C116.492 9.904 117.004 9.216 117.628 8.832C118.268 8.432 119.108 8.232 120.148 8.232V9.792C119.332 9.776 118.66 9.904 118.132 10.176C117.604 10.448 117.18 10.816 116.86 11.28C116.556 11.744 116.34 12.296 116.212 12.936C116.1 13.56 116.044 14.216 116.044 14.904V21ZM126.566 21.336C125.766 21.32 125.014 21.176 124.31 20.904C123.622 20.632 123.014 20.224 122.486 19.68C121.974 19.136 121.566 18.456 121.262 17.64C120.958 16.824 120.806 15.872 120.806 14.784C120.806 13.872 120.926 13.024 121.166 12.24C121.406 11.44 121.766 10.744 122.246 10.152C122.726 9.56 123.326 9.096 124.046 8.76C124.766 8.408 125.606 8.232 126.566 8.232C127.542 8.232 128.39 8.408 129.11 8.76C129.83 9.096 130.43 9.56 130.91 10.152C131.39 10.728 131.742 11.416 131.966 12.216C132.206 13.016 132.326 13.872 132.326 14.784C132.326 15.776 132.19 16.672 131.918 17.472C131.646 18.272 131.254 18.96 130.742 19.536C130.246 20.112 129.638 20.56 128.918 20.88C128.214 21.184 127.43 21.336 126.566 21.336ZM130.79 14.784C130.79 14.048 130.71 13.36 130.55 12.72C130.39 12.08 130.142 11.528 129.806 11.064C129.47 10.584 129.038 10.208 128.51 9.936C127.982 9.664 127.334 9.528 126.566 9.528C125.814 9.528 125.166 9.68 124.622 9.984C124.094 10.272 123.662 10.664 123.326 11.16C122.99 11.64 122.742 12.2 122.582 12.84C122.422 13.464 122.342 14.112 122.342 14.784C122.342 15.552 122.43 16.264 122.606 16.92C122.798 17.56 123.07 18.112 123.422 18.576C123.774 19.04 124.214 19.4 124.742 19.656C125.27 19.912 125.878 20.04 126.566 20.04C127.318 20.04 127.958 19.896 128.486 19.608C129.03 19.304 129.47 18.904 129.806 18.408C130.142 17.912 130.39 17.352 130.55 16.728C130.71 16.104 130.79 15.456 130.79 14.784ZM136.302 8.568V22.656C136.302 23.184 136.278 23.648 136.23 24.048C136.182 24.448 136.07 24.784 135.894 25.056C135.734 25.344 135.486 25.552 135.15 25.68C134.83 25.824 134.382 25.896 133.806 25.896C133.454 25.896 133.142 25.864 132.87 25.8V24.528C133.286 24.576 133.622 24.576 133.878 24.528C134.134 24.496 134.334 24.408 134.478 24.264C134.622 24.12 134.718 23.928 134.766 23.688C134.83 23.448 134.862 23.168 134.862 22.848V8.568H136.302ZM136.374 5.856H134.79V3.72H136.374V5.856ZM148.318 13.92C148.318 13.312 148.23 12.744 148.054 12.216C147.894 11.672 147.646 11.208 147.31 10.824C146.99 10.424 146.582 10.112 146.086 9.888C145.59 9.648 145.022 9.528 144.382 9.528C143.742 9.528 143.174 9.648 142.678 9.888C142.198 10.128 141.782 10.448 141.43 10.848C141.094 11.248 140.822 11.712 140.614 12.24C140.406 12.768 140.27 13.328 140.206 13.92H148.318ZM140.206 15.12C140.206 15.792 140.294 16.432 140.47 17.04C140.646 17.632 140.902 18.152 141.238 18.6C141.59 19.032 142.03 19.384 142.558 19.656C143.086 19.912 143.694 20.04 144.382 20.04C145.326 20.04 146.134 19.792 146.806 19.296C147.478 18.8 147.926 18.096 148.15 17.184H149.758C149.582 17.776 149.35 18.328 149.062 18.84C148.774 19.336 148.414 19.776 147.982 20.16C147.55 20.528 147.038 20.816 146.446 21.024C145.854 21.232 145.166 21.336 144.382 21.336C143.39 21.336 142.534 21.168 141.814 20.832C141.094 20.496 140.502 20.04 140.038 19.464C139.574 18.872 139.23 18.184 139.006 17.4C138.782 16.6 138.67 15.744 138.67 14.832C138.67 13.92 138.798 13.064 139.054 12.264C139.326 11.464 139.702 10.768 140.182 10.176C140.678 9.568 141.278 9.096 141.982 8.76C142.686 8.408 143.486 8.232 144.382 8.232C146.094 8.232 147.438 8.824 148.414 10.008C149.39 11.176 149.87 12.88 149.854 15.12H140.206ZM160.982 12.48C160.726 11.552 160.286 10.832 159.662 10.32C159.038 9.792 158.246 9.528 157.286 9.528C156.55 9.528 155.918 9.68 155.39 9.984C154.862 10.288 154.43 10.696 154.094 11.208C153.758 11.704 153.51 12.272 153.35 12.912C153.19 13.536 153.11 14.168 153.11 14.808C153.11 15.464 153.182 16.104 153.326 16.728C153.486 17.352 153.734 17.912 154.07 18.408C154.406 18.904 154.838 19.304 155.366 19.608C155.894 19.896 156.534 20.04 157.286 20.04C158.358 20.04 159.214 19.744 159.854 19.152C160.51 18.56 160.926 17.744 161.102 16.704H162.638C162.51 17.392 162.302 18.024 162.014 18.6C161.742 19.16 161.382 19.648 160.934 20.064C160.502 20.464 159.982 20.776 159.374 21C158.766 21.224 158.07 21.336 157.286 21.336C156.294 21.336 155.438 21.168 154.718 20.832C153.998 20.496 153.406 20.04 152.942 19.464C152.478 18.872 152.134 18.176 151.91 17.376C151.686 16.576 151.574 15.72 151.574 14.808C151.574 13.944 151.694 13.12 151.934 12.336C152.19 11.536 152.558 10.832 153.038 10.224C153.518 9.616 154.11 9.136 154.814 8.784C155.534 8.416 156.358 8.232 157.286 8.232C158.726 8.232 159.886 8.576 160.766 9.264C161.662 9.952 162.222 11.024 162.446 12.48H160.982ZM169.398 21.048C169.222 21.08 168.99 21.136 168.702 21.216C168.414 21.296 168.094 21.336 167.742 21.336C167.022 21.336 166.47 21.16 166.086 20.808C165.718 20.44 165.534 19.792 165.534 18.864V9.768H163.782V8.568H165.534V5.112H166.974V8.568H169.302V9.768H166.974V18.288C166.974 18.592 166.982 18.856 166.998 19.08C167.014 19.304 167.062 19.488 167.142 19.632C167.222 19.776 167.342 19.88 167.502 19.944C167.678 20.008 167.918 20.04 168.222 20.04C168.414 20.04 168.606 20.024 168.798 19.992C169.006 19.96 169.206 19.92 169.398 19.872V21.048ZM172.07 17.112C172.294 18.184 172.694 18.944 173.27 19.392C173.862 19.824 174.702 20.04 175.79 20.04C176.318 20.04 176.774 19.976 177.158 19.848C177.542 19.72 177.854 19.552 178.094 19.344C178.35 19.12 178.542 18.872 178.67 18.6C178.798 18.328 178.862 18.04 178.862 17.736C178.862 17.128 178.662 16.68 178.262 16.392C177.878 16.088 177.39 15.856 176.798 15.696C176.206 15.52 175.566 15.376 174.878 15.264C174.19 15.136 173.55 14.952 172.958 14.712C172.366 14.472 171.87 14.128 171.47 13.68C171.086 13.232 170.894 12.6 170.894 11.784C170.894 10.744 171.27 9.896 172.022 9.24C172.79 8.568 173.87 8.232 175.262 8.232C176.606 8.232 177.694 8.536 178.526 9.144C179.374 9.736 179.886 10.736 180.062 12.144H178.598C178.47 11.184 178.102 10.512 177.494 10.128C176.902 9.728 176.15 9.528 175.238 9.528C174.326 9.528 173.63 9.728 173.15 10.128C172.67 10.512 172.43 11.024 172.43 11.664C172.43 12.224 172.622 12.656 173.006 12.96C173.406 13.248 173.902 13.488 174.494 13.68C175.086 13.856 175.726 14.016 176.414 14.16C177.102 14.304 177.742 14.512 178.334 14.784C178.926 15.04 179.414 15.392 179.798 15.84C180.198 16.288 180.398 16.912 180.398 17.712C180.398 18.304 180.27 18.832 180.014 19.296C179.758 19.744 179.406 20.12 178.958 20.424C178.51 20.728 177.974 20.952 177.35 21.096C176.742 21.256 176.07 21.336 175.334 21.336C174.598 21.336 173.942 21.224 173.366 21C172.806 20.792 172.326 20.496 171.926 20.112C171.526 19.728 171.214 19.28 170.99 18.768C170.766 18.256 170.638 17.704 170.606 17.112H172.07Z" fill="#00426F"/>
</svg>
